# xmcd
#
# Track frame offsets: 
#        150
#        29196
#        57806
#        84263
#        119902
#        151229
#        181696
#        211925
#        241670
#        266432
#
# Disc length: 3951 seconds
#
# Revision: 0
# Processed by: cddbd v1.5.1PL2 Copyright (c) Steve Scherf et al.
# Submitted via: ExactAudioCopy v0.95b2
#
DISCID=7e0f6d0a
DTITLE=Various Artist - Live At The Ivy Room [CD2]
DYEAR=2004
DGENRE=Blues
TTITLE0=01_Santa Got Jacked
TTITLE1=02_Shakey Ground
TTITLE2=03_Mz Dee Bogie
TTITLE3=04_I'd Rather Be Blind
TTITLE4=05_In Love Wit Yo Peaches
TTITLE5=06_I Wanted Your Love
TTITLE6=07_Help Me
TTITLE7=08_Too Tired
TTITLE8=09_Rockin Pneumonia
TTITLE9=10_Knock On Wood
EXTD=
EXTT0=
EXTT1=
EXTT2=
EXTT3=
EXTT4=
EXTT5=
EXTT6=
EXTT7=
EXTT8=
EXTT9=
PLAYORDER=
